<svg viewBox="0 0 86 86" fill="none" xmlns="http://www.w3.org/2000/svg">
<g clip-path="url(#clip0_213_1991)">
<path d="M57.0722 26.8398C57.7149 26.3051 58.0002 25.462 57.8116 24.6549L57.6117 23.7999C57.4237 22.9959 56.7964 22.3615 55.9846 22.1545L28.0614 15.0327C27.1191 14.7924 26.4342 15.9301 27.0734 16.6737L36.5641 27.7136C37.366 28.6465 38.7848 28.7632 39.733 27.9743L46.2574 22.5462C47.2057 21.7573 48.6245 21.874 49.4264 22.8068L53.1839 27.1777C53.9858 28.1105 55.4046 28.2272 56.3528 27.4383L57.0722 26.8398Z" fill="url(#paint0_linear_213_1991)"/>
<path d="M29.0011 38.1482L24.0551 22.9576C23.7151 21.9136 25.0313 21.1495 25.7431 21.9776L36.0342 33.9486C36.8362 34.8815 38.255 34.9982 39.2032 34.2092L45.7276 28.7812C46.6758 27.9923 48.0946 28.109 48.8965 29.0418L59.4546 41.3234C60.1407 42.1215 59.3058 43.3171 58.3383 42.9221L51.0694 39.9538C50.7347 39.8171 50.3714 39.762 50.0104 39.7933L33.6779 41.2058C31.5842 41.3868 29.6423 40.1172 29.0011 38.1482Z" fill="url(#paint1_linear_213_1991)"/>
<path d="M58.6487 33.5808C59.9068 34.7872 62 33.8973 62 32.156C62 30.4142 59.9057 29.5245 58.6478 30.7319C57.8376 31.5096 57.838 32.8036 58.6487 33.5808Z" fill="url(#paint2_linear_213_1991)"/>
<path d="M52.6118 58.9991C52.6118 57.895 53.5177 57 54.6353 57C55.7529 57 56.6588 57.895 56.6588 58.9991C56.6588 60.1032 55.7529 60.9982 54.6353 60.9982C53.5177 60.9982 52.6118 60.1032 52.6118 58.9991Z" fill="url(#paint3_linear_213_1991)"/>
<path fill-rule="evenodd" clip-rule="evenodd" d="M33.3986 76.0727C32.0549 77.2653 30.2779 77.9908 28.3294 77.9908C24.1385 77.9908 20.7412 74.6344 20.7412 70.4941C20.7412 66.3538 24.1385 62.9974 28.3294 62.9974C32.5203 62.9974 35.9176 66.3538 35.9176 70.4941C35.9176 71.3723 35.127 71.9934 34.2381 71.9934L25.4663 71.9934C24.768 71.9934 24.2904 72.6833 24.7156 73.2305C25.5478 74.3016 26.857 74.9921 28.3294 74.9921C29.564 74.9921 30.6838 74.5067 31.5039 73.7184C31.6483 73.5797 31.8382 73.4928 32.0396 73.4928C33.5712 73.4928 34.538 75.0615 33.3986 76.0727ZM31.9432 67.7577C32.3684 68.3049 31.8908 68.9947 31.1926 68.9947L25.4663 68.9947C24.768 68.9947 24.2904 68.3049 24.7156 67.7577C25.5478 66.6866 26.857 65.9961 28.3294 65.9961C29.8018 65.9961 31.111 66.6866 31.9432 67.7577Z" fill="url(#paint4_linear_213_1991)"/>
<path fill-rule="evenodd" clip-rule="evenodd" d="M74.3647 77.9908C76.3132 77.9908 78.0902 77.2653 79.4339 76.0727C80.5733 75.0615 79.6065 73.4928 78.0749 73.4928C77.8735 73.4928 77.6836 73.5797 77.5392 73.7184C76.7191 74.5067 75.5993 74.9921 74.3647 74.9921C72.8923 74.9921 71.5831 74.3016 70.7509 73.2305C70.3257 72.6833 70.8033 71.9934 71.5016 71.9934L80.2734 71.9934C81.1623 71.9934 81.9529 71.3723 81.9529 70.4941C81.9529 66.3538 78.5556 62.9974 74.3647 62.9974C70.1738 62.9974 66.7765 66.3538 66.7765 70.4941C66.7765 74.6344 70.1738 77.9908 74.3647 77.9908ZM77.2279 68.9947C77.9261 68.9947 78.4037 68.3049 77.9785 67.7577C77.1463 66.6866 75.8371 65.9961 74.3647 65.9961C72.8923 65.9961 71.5831 66.6866 70.7509 67.7577C70.3257 68.3049 70.8033 68.9947 71.5016 68.9947L77.2279 68.9947Z" fill="url(#paint5_linear_213_1991)"/>
<path d="M54.6353 62.9974C53.7971 62.9974 53.1176 63.6686 53.1176 64.4967L53.1176 76.4915C53.1176 77.3195 53.7971 77.9908 54.6353 77.9908C55.4735 77.9908 56.1529 77.3195 56.1529 76.4915L56.1529 64.4967C56.1529 63.6686 55.4735 62.9974 54.6353 62.9974Z" fill="url(#paint6_linear_213_1991)"/>
<path d="M10.1339 67.3181C10.2652 66.8194 10.9819 66.8194 11.1131 67.3181L13.6588 76.9912C13.8388 77.6596 14.4963 78.0227 15.1765 77.9989C15.8567 78.0226 16.5142 77.6596 16.6941 76.9912L21.1954 59.8874C21.4107 59.0875 20.9338 58.2654 20.1301 58.051C19.3264 57.8367 18.5003 58.3114 18.285 59.1113L15.6876 68.7593C15.5539 69.2559 14.8399 69.2539 14.7091 68.7566L12.1412 58.9991C11.9612 58.3307 11.3038 57.9677 10.6235 57.9915C9.94333 57.9677 9.28583 58.3307 9.10588 58.9991L6.538 68.7566C6.40713 69.2539 5.69317 69.2559 5.5595 68.7593L2.96205 59.1113C2.74672 58.3114 1.92065 57.8367 1.11698 58.051C0.313305 58.2654 -0.163631 59.0875 0.0517028 59.8874L4.55294 76.9912C4.73289 77.6596 5.39033 78.0226 6.07053 77.9989C6.75075 78.0227 7.40829 77.6596 7.58824 76.9912L10.1339 67.3181Z" fill="url(#paint7_linear_213_1991)"/>
<path d="M84.4824 57.9996C83.6442 57.9996 82.9647 58.6708 82.9647 59.4989L82.9647 76.4915C82.9647 77.3195 83.6442 77.9908 84.4824 77.9908C85.3205 77.9908 86 77.3195 86 76.4915L86 59.4989C86 58.6708 85.3205 57.9996 84.4824 57.9996Z" fill="url(#paint8_linear_213_1991)"/>
<path d="M59.6941 59.4989C59.6941 58.6708 60.3736 57.9996 61.2118 57.9996C62.0499 57.9996 62.7294 58.6708 62.7294 59.4989L62.7294 62.4976C62.7294 62.7736 62.9559 62.9974 63.2353 62.9974L65.7647 62.9974C66.6029 62.9974 67.2824 63.6686 67.2824 64.4967C67.2824 65.3248 66.6029 65.9961 65.7647 65.9961L63.2353 65.9961C62.9559 65.9961 62.7294 66.2198 62.7294 66.4958L62.7294 76.4915C62.7294 77.3195 62.0499 77.9908 61.2118 77.9908C60.3736 77.9908 59.6941 77.3195 59.6941 76.4915L59.6941 66.4958C59.6941 66.2198 59.4676 65.9961 59.1882 65.9961L58.6824 65.9961C57.8442 65.9961 57.1647 65.3248 57.1647 64.4967C57.1647 63.6686 57.8442 62.9974 58.6824 62.9974L59.1882 62.9974C59.4676 62.9974 59.6941 62.7736 59.6941 62.4976L59.6941 59.4989Z" fill="url(#paint9_linear_213_1991)"/>
<path fill-rule="evenodd" clip-rule="evenodd" d="M37.4353 58.4993C37.4353 57.6713 38.1148 57 38.9529 57C39.7911 57 40.4706 57.6713 40.4706 58.4993L40.4706 64.2931C40.4706 64.6971 40.9371 64.9421 41.3013 64.7584C42.2665 64.2715 43.3596 63.9969 44.5177 63.9969C48.4291 63.9969 51.6 67.1296 51.6 70.9939C51.6 74.8582 48.4291 77.9908 44.5176 77.9908C43.2959 77.9908 42.1464 77.6852 41.1431 77.147C40.8138 76.9704 40.3612 77.1625 40.122 77.4476C39.8437 77.7794 39.4233 77.9908 38.9529 77.9908C38.1148 77.9908 37.4353 77.3195 37.4353 76.4915L37.4353 58.4993ZM44.5176 74.9921C42.2825 74.9921 40.4706 73.202 40.4706 70.9939C40.4706 68.7857 42.2825 66.9956 44.5177 66.9956C46.7528 66.9956 48.5647 68.7857 48.5647 70.9939C48.5647 73.202 46.7528 74.9921 44.5176 74.9921Z" fill="url(#paint10_linear_213_1991)"/>
</g>
<defs>
<linearGradient id="paint0_linear_213_1991" x1="43" y1="15" x2="43" y2="43" gradientUnits="userSpaceOnUse">
<stop stop-color="#FBFCFF"/>
<stop offset="1" stop-color="#B8C3F3"/>
</linearGradient>
<linearGradient id="paint1_linear_213_1991" x1="43" y1="15" x2="43" y2="43" gradientUnits="userSpaceOnUse">
<stop stop-color="#FBFCFF"/>
<stop offset="1" stop-color="#B8C3F3"/>
</linearGradient>
<linearGradient id="paint2_linear_213_1991" x1="43" y1="15" x2="43" y2="43" gradientUnits="userSpaceOnUse">
<stop stop-color="#FBFCFF"/>
<stop offset="1" stop-color="#B8C3F3"/>
</linearGradient>
<linearGradient id="paint3_linear_213_1991" x1="43" y1="57" x2="43" y2="78" gradientUnits="userSpaceOnUse">
<stop stop-color="#FBFCFF"/>
<stop offset="1" stop-color="#B8C3F3"/>
</linearGradient>
<linearGradient id="paint4_linear_213_1991" x1="43" y1="57" x2="43" y2="78" gradientUnits="userSpaceOnUse">
<stop stop-color="#FBFCFF"/>
<stop offset="1" stop-color="#B8C3F3"/>
</linearGradient>
<linearGradient id="paint5_linear_213_1991" x1="43" y1="57" x2="43" y2="78" gradientUnits="userSpaceOnUse">
<stop stop-color="#FBFCFF"/>
<stop offset="1" stop-color="#B8C3F3"/>
</linearGradient>
<linearGradient id="paint6_linear_213_1991" x1="43" y1="57" x2="43" y2="78" gradientUnits="userSpaceOnUse">
<stop stop-color="#FBFCFF"/>
<stop offset="1" stop-color="#B8C3F3"/>
</linearGradient>
<linearGradient id="paint7_linear_213_1991" x1="43" y1="57" x2="43" y2="78" gradientUnits="userSpaceOnUse">
<stop stop-color="#FBFCFF"/>
<stop offset="1" stop-color="#B8C3F3"/>
</linearGradient>
<linearGradient id="paint8_linear_213_1991" x1="43" y1="57" x2="43" y2="78" gradientUnits="userSpaceOnUse">
<stop stop-color="#FBFCFF"/>
<stop offset="1" stop-color="#B8C3F3"/>
</linearGradient>
<linearGradient id="paint9_linear_213_1991" x1="43" y1="57" x2="43" y2="78" gradientUnits="userSpaceOnUse">
<stop stop-color="#FBFCFF"/>
<stop offset="1" stop-color="#B8C3F3"/>
</linearGradient>
<linearGradient id="paint10_linear_213_1991" x1="43" y1="57" x2="43" y2="78" gradientUnits="userSpaceOnUse">
<stop stop-color="#FBFCFF"/>
<stop offset="1" stop-color="#B8C3F3"/>
</linearGradient>
<clipPath id="clip0_213_1991">
<rect width="86" height="86" fill="white"/>
</clipPath>
</defs>
</svg>
